<svg width="28" height="28" viewBox="0 0 28 28" fill="none" xmlns="http://www.w3.org/2000/svg">
<path d="M7 3.5V7H3.5V3.5H7ZM1.75 1.75V8.75H8.75V1.75H1.75ZM15.75 6.125V9.625H12.25V6.125H15.75ZM10.5 4.375V11.375H17.5V4.375H10.5ZM7 14V17.5H3.5V14H7ZM1.75 12.25V19.25H8.75V12.25H1.75Z" fill="#026093"/>
<path d="M19.25 8.75V14H14V19.25H8.75V26.25H26.25V8.75H19.25ZM15.75 15.75H19.25V19.25H15.75V15.75ZM14 24.5H10.5V21H14V24.5ZM19.25 24.5H15.75V21H19.25V24.5ZM24.5 24.5H21V21H24.5V24.5ZM24.5 19.25H21V15.75H24.5V19.25ZM21 14V10.5H24.5V14H21Z" fill="#026093"/>
</svg>
