<svg width="163" height="163" viewBox="0 0 163 163" fill="none" xmlns="http://www.w3.org/2000/svg">
<path fill-rule="evenodd" clip-rule="evenodd" d="M43.3027 38.5192C62.1313 21.5659 89.9372 19.1303 111.612 32.5024C133.264 45.8608 143.663 71.8258 137.15 96.3271C130.69 120.626 109.127 137.724 84.0411 138.55L83.2798 138.57L82.8826 118.398C99.2988 118.075 113.439 106.988 117.652 91.1437C121.875 75.2568 115.111 58.367 101.018 49.6729C87.0892 41.0793 69.3167 42.5379 57.169 53.1869L56.8026 53.5124L43.3027 38.5192Z" fill="#79A1DE"/>
<path fill-rule="evenodd" clip-rule="evenodd" d="M43.0248 38.7694L42.65 39.1069L56.15 54.1001L56.5248 53.7626L43.0248 38.7694ZM41.2423 40.4442L40.8821 40.7974L55.0067 55.2037L55.3668 54.8506L41.2423 40.4442ZM39.532 42.1941L39.1872 42.5622L53.9127 56.3537L54.2575 55.9855L39.532 42.1941ZM37.8923 44.0217L37.5636 44.4043L52.8665 57.5522L53.1952 57.1696L37.8923 44.0217ZM36.3321 45.9186L36.0201 46.3149L51.873 58.7941L52.185 58.3977L36.3321 45.9186ZM34.8636 47.8682L34.5689 48.2775L50.9397 60.069L51.2345 59.6597L34.8636 47.8682ZM33.471 49.8919L33.1941 50.3135L50.0562 61.3911L50.3331 60.9696L33.471 49.8919ZM32.1689 51.9697L31.9103 52.4027L49.2315 62.7478L49.4901 62.3148L32.1689 51.9697ZM30.9545 54.1058L30.7147 54.5495L48.4638 64.142L48.7036 63.6983L30.9545 54.1058ZM29.8321 56.2937L29.6115 56.7473L47.7557 65.5696L47.9762 65.116L29.8321 56.2937ZM28.8184 58.4955L28.6172 58.958L47.1178 67.0061L47.319 66.5436L28.8184 58.4955ZM27.888 60.7656L27.7067 61.2363L46.5342 68.487L46.7154 68.0163L27.888 60.7656ZM27.0564 63.0702L26.8954 63.5482L46.0146 69.9901L46.1757 69.5121L27.0564 63.0702ZM26.3232 65.4101L26.1826 65.8945L45.559 71.5159L45.6996 71.0315L26.3232 65.4101ZM25.6906 67.7779L25.5708 68.2678L45.1688 73.0596L45.2886 72.5696L25.6906 67.7779ZM25.1584 70.1745L25.0596 70.6691L44.8441 74.6214L44.9429 74.1268L25.1584 70.1745ZM24.7294 72.5884L24.6517 73.0868L44.5864 76.1938L44.6641 75.6955L24.7294 72.5884ZM24.4028 75.0245L24.3464 75.5258L44.3954 77.7799L44.4518 77.2786L24.4028 75.0245ZM24.1804 77.4713L24.1455 77.9745L44.2724 79.3718L44.3073 78.8686L24.1804 77.4713ZM24.063 79.9083L24.0494 80.4125L44.2174 80.9563L44.231 80.4521L24.063 79.9083ZM24.0484 82.3152L24.0559 82.8195L44.229 82.52L44.2215 82.0157L24.0484 82.3152ZM24.1367 84.7605L24.1656 85.2641L44.3078 84.1076L44.2789 83.6041L24.1367 84.7605ZM24.3292 87.203L24.3795 87.7049L44.4542 85.6923L44.4039 85.1905L24.3292 87.203ZM24.6254 89.635L24.697 90.1342L44.6679 87.2693L44.5963 86.77L24.6254 89.635ZM25.025 92.0531L25.1178 92.5489L44.9487 88.8367L44.8559 88.3409L25.025 92.0531ZM25.5275 94.454L25.6413 94.9453L45.2963 90.3926L45.1825 89.9012L25.5275 94.454ZM26.1302 96.8259L26.2648 97.3121L45.709 91.9299L45.5745 91.4438L26.1302 96.8259ZM26.8342 99.1742L26.9892 99.6542L46.1878 93.4526L46.0328 92.9726L26.8342 99.1742ZM27.6357 101.487L27.8108 101.96L46.7305 94.9537L46.5553 94.4807L27.6357 101.487ZM28.5336 103.764L28.7285 104.229L47.3366 96.4325L47.1417 95.9673L28.5336 103.764ZM29.5245 105.996L29.7388 106.452L48.0025 97.8801L47.7882 97.4235L29.5245 105.996ZM30.6102 108.187L30.8436 108.635L48.729 99.2987L48.4956 98.8515L30.6102 108.187ZM31.7878 110.332L32.0399 110.768L49.5143 100.684L49.2622 100.247L31.7878 110.332ZM33.0581 112.429L33.3285 112.854L50.3592 102.038L50.0888 101.612L33.0581 112.429ZM34.4077 114.458L34.6959 114.872L51.255 103.346L50.9669 102.932L34.4077 114.458ZM35.8491 116.438L36.1545 116.839L52.2101 104.622L51.9047 104.22L35.8491 116.438ZM37.3759 118.358L37.698 118.746L53.2205 105.858L52.8983 105.47L37.3759 118.358ZM38.9807 120.21L39.3191 120.584L54.2814 107.05L53.943 106.676L38.9807 120.21ZM40.6641 121.993L41.018 122.353L55.3932 108.196L55.0393 107.837L40.6641 121.993ZM42.3992 123.683L42.7678 124.027L56.5383 109.282L56.1696 108.938L42.3992 123.683ZM44.2196 125.312L44.6024 125.641L57.7388 110.328L57.3559 110L44.2196 125.312ZM46.1112 126.867L46.5076 127.179L58.9853 111.325L58.589 111.013L46.1112 126.867ZM48.0686 128.342L48.4777 128.637L60.2742 112.269L59.865 111.974L48.0686 128.342ZM50.0821 129.729L50.5033 130.007L61.5989 113.156L61.1776 112.879L50.0821 129.729ZM52.1595 131.035L52.5921 131.294L62.9644 113.989L62.5318 113.73L52.1595 131.035ZM54.2876 132.25L54.7308 132.491L64.3619 114.763L63.9187 114.522L54.2876 132.25ZM56.4671 133.375L56.9201 133.597L65.7914 115.477L65.3384 115.255L56.4671 133.375ZM58.6951 134.408L59.1571 134.61L67.2512 116.13L66.7891 115.927L58.6951 134.408ZM60.9333 135.333L61.4034 135.515L68.7158 116.712L68.2457 116.529L60.9333 135.333ZM63.2051 136.162L63.6824 136.325L70.2006 117.231L69.7233 117.068L63.2051 136.162ZM65.5401 136.904L66.0239 137.046L71.725 117.693L71.2411 117.551L65.5401 136.904ZM67.9033 137.546L68.3928 137.668L73.266 118.09L72.7766 117.968L67.9033 137.546ZM70.2916 138.087L70.7858 138.188L74.8219 118.42L74.3277 118.319L70.2916 138.087ZM72.7059 138.526L73.2039 138.606L76.3935 118.684L75.8954 118.605L72.7059 138.526ZM75.1345 138.862L75.6355 138.921L77.9735 118.881L77.4725 118.823L75.1345 138.862ZM77.5739 139.094L78.0769 139.131L79.5603 119.011L79.0573 118.973L77.5739 139.094ZM80.0208 139.222L80.5249 139.238L81.1523 119.072L80.6482 119.057L80.0208 139.222ZM82.4718 139.247L82.9761 139.241L82.748 119.067L82.2437 119.073L82.4718 139.247Z" fill="#79A1DE"/>
</svg>
