<svg width="159" height="159" viewBox="0 0 159 159" fill="none" xmlns="http://www.w3.org/2000/svg">
<path fill-rule="evenodd" clip-rule="evenodd" d="M129.11 108.573C116.441 130.515 90.749 141.424 66.003 135.404C41.2824 129.391 23.3686 107.91 21.9921 82.5948C20.627 57.4894 35.8508 34.5642 59.4539 26.0275L60.1717 25.7732L66.7829 44.8346C51.2701 50.215 41.2475 65.129 42.1377 81.4994C43.0302 97.9138 54.6828 111.887 70.7719 115.8C86.675 119.669 103.127 112.79 111.389 98.9082L111.637 98.4854L129.11 108.573Z" fill="#E17777"/>
<path fill-rule="evenodd" clip-rule="evenodd" d="M129.296 108.249L129.549 107.813L112.076 97.7248L111.824 98.1617L129.296 108.249ZM130.474 106.106L130.708 105.658L112.823 96.3219L112.589 96.7691L130.474 106.106ZM131.56 103.913L131.774 103.456L113.508 94.8902L113.293 95.3469L131.56 103.913ZM132.555 101.668L132.749 101.203L114.132 93.427L113.938 93.8925L132.555 101.668ZM133.452 99.3819L133.627 98.9085L114.693 91.9389L114.519 92.4123L133.452 99.3819ZM134.247 97.0739L134.4 96.5936L115.187 90.4381L115.033 90.9184L134.247 97.0739ZM134.946 94.7189L135.079 94.2324L115.619 88.9076L115.486 89.3941L134.946 94.7189ZM135.542 92.3404L135.654 91.8487L115.984 87.3624L115.872 87.8542L135.542 92.3404ZM136.037 89.9336L136.128 89.4375L116.283 85.7993L116.192 86.2954L136.037 89.9336ZM136.428 87.5059L136.498 87.0064L116.515 84.2227L116.446 84.7222L136.428 87.5059ZM136.712 85.0987L136.76 84.5966L116.678 82.6594L116.63 83.1614L136.712 85.0987ZM136.895 82.6521L136.922 82.1485L116.776 81.0706L116.749 81.5743L136.895 82.6521ZM136.974 80.2033L136.979 79.699L116.805 79.4805L116.8 79.9849L136.974 80.2033ZM136.948 77.7514L136.932 77.2473L116.767 77.8886L116.783 78.3927L136.948 77.7514ZM136.818 75.304L136.781 74.801L116.661 76.2999L116.699 76.8029L136.818 75.304ZM136.584 72.8603L136.525 72.3593L116.487 74.7142L116.546 75.2151L136.584 72.8603ZM136.246 70.4319L136.166 69.9339L116.247 73.1391L116.327 73.6371L136.246 70.4319ZM135.804 68.0141L135.702 67.52L115.938 71.5717L116.039 72.0658L135.804 68.0141ZM135.259 65.6183L135.137 65.129L115.563 70.0196L115.685 70.509L135.259 65.6183ZM134.618 63.2643L134.475 62.7806L115.126 68.4957L115.269 68.9794L134.618 63.2643ZM133.888 60.9708L133.725 60.4934L114.632 67.0121L114.794 67.4894L133.888 60.9708ZM133.048 58.6724L132.865 58.2024L114.066 65.5265L114.249 65.9965L133.048 58.6724ZM132.11 56.4089L131.907 55.9472L113.437 64.0646L113.64 64.5264L132.11 56.4089ZM131.077 54.1875L130.855 53.7348L112.747 62.6309L112.969 63.0836L131.077 54.1875ZM129.95 52.0112L129.708 51.5684L111.995 61.227L112.237 61.6698L129.95 52.0112ZM128.73 49.8832L128.47 49.451L111.184 59.8546L111.444 60.2868L128.73 49.8832ZM127.424 47.8135L127.146 47.3928L110.316 58.5201L110.594 58.9408L127.424 47.8135ZM126.029 45.7977L125.733 45.3892L109.39 57.2199L109.686 57.6285L126.029 45.7977ZM124.552 43.8456L124.239 43.4499L108.41 55.96L108.723 56.3557L124.552 43.8456ZM122.994 41.9581L122.665 41.5758L107.377 54.7408L107.706 55.1231L122.994 41.9581ZM121.362 40.1414L121.017 39.7734L106.296 53.5699L106.641 53.9379L121.362 40.1414ZM119.652 38.3925L119.292 38.0394L105.167 52.4452L105.527 52.7984L119.652 38.3925ZM117.87 36.7172L117.495 36.3797L103.992 51.3701L104.367 51.7077L117.87 36.7172ZM116.013 35.1153L115.625 34.7939L102.77 50.3439L103.159 50.6653L116.013 35.1153ZM114.103 33.6026L113.701 33.2979L101.514 49.3764L101.916 49.6811L114.103 33.6026ZM112.12 32.1649L111.706 31.8776L100.211 48.4584L100.626 48.7457L112.12 32.1649ZM110.075 30.8103L109.648 30.5408L98.8682 47.5947L99.2946 47.8642L110.075 30.8103ZM107.976 29.5453L107.539 29.2941L97.4911 46.7894L97.9285 47.0406L107.976 29.5453ZM105.824 28.3692L105.376 28.1368L96.0793 46.0423L96.527 46.2748L105.824 28.3692ZM103.652 27.2984L103.195 27.0849L94.6548 45.3637L95.1118 45.5772L103.652 27.2984ZM101.417 26.3111L100.951 26.1171L93.1898 44.7398L93.6554 44.9338L101.417 26.3111ZM99.1375 25.4172L98.6641 25.243L91.6962 44.1769L92.1696 44.3511L99.1375 25.4172ZM96.8203 24.6196L96.34 24.4656L90.1787 43.6771L90.659 43.8311L96.8203 24.6196ZM94.4765 23.9221L93.9901 23.7885L88.6446 43.2428L89.131 43.3764L94.4765 23.9221ZM92.0972 23.3222L91.6056 23.2093L87.0885 42.8725L87.5801 42.9854L92.0972 23.3222ZM89.6978 22.8242L89.2019 22.7322L85.5205 42.5688L86.0164 42.6608L89.6978 22.8242ZM87.2774 22.4279L86.778 22.3569L83.9403 42.3317L84.4397 42.4026L87.2774 22.4279ZM84.8393 22.1341L84.3374 22.0845L82.3503 42.1617L82.8522 42.2114L84.8393 22.1341ZM82.4248 21.9462L81.9212 21.9176L80.7773 42.0605L81.2809 42.0891L82.4248 21.9462ZM80.008 21.8597L79.5036 21.8522L79.2046 42.0253L79.709 42.0328L80.008 21.8597ZM77.558 21.8754L77.0538 21.8894L77.6122 42.057L78.1164 42.043L77.558 21.8754ZM75.112 21.9952L74.6089 22.0306L76.0241 42.1562L76.5272 42.1209L75.112 21.9952ZM72.6735 22.2189L72.1723 22.2756L74.4423 42.3229L74.9435 42.2661L72.6735 22.2189ZM70.2416 22.5469L69.7433 22.625L72.866 42.5572L73.3643 42.4791L70.2416 22.5469ZM67.828 22.9779L67.3335 23.0771L71.3024 42.8583L71.7969 42.759L67.828 22.9779ZM65.4363 23.511L64.9464 23.6311L69.7532 43.2255L70.2431 43.1053L65.4363 23.511ZM63.0695 24.1452L62.5852 24.2861L68.22 43.6586L68.7043 43.5177L63.0695 24.1452ZM60.731 24.8795L60.2531 25.0408L66.7042 44.157L67.1821 43.9957L60.731 24.8795Z" fill="#E17777"/>
</svg>
