<svg width="115" height="115" viewBox="0 0 115 115" fill="none" xmlns="http://www.w3.org/2000/svg">
<path fill-rule="evenodd" clip-rule="evenodd" d="M57.8735 0C83.2099 0 105.503 16.7958 112.663 41.2363C119.815 65.6519 110.169 91.906 88.9343 105.756C67.875 119.491 40.4092 117.769 21.2146 101.596L20.6355 101.102L33.8376 85.8457C46.2536 96.59 64.1808 97.8128 77.9128 88.8567C91.6819 79.8765 97.9564 62.7987 93.3014 46.9082C88.7002 31.2014 74.5166 20.3932 58.3636 20.1786L57.8735 20.1753V0Z" fill="#75E76B"/>
<path fill-rule="evenodd" clip-rule="evenodd" d="M57.4996 0H56.9952V20.1753H57.4996V0ZM55.0542 0.0519232L54.5503 0.0733437L55.4071 20.2305L55.911 20.2091L55.0542 0.0519232ZM52.6123 0.207886L52.1098 0.250759L53.8247 20.3531L54.3272 20.3102L52.6123 0.207886ZM50.1709 0.46894L49.6706 0.533305L52.2452 20.5437L52.7455 20.4793L50.1709 0.46894ZM47.7422 0.834561L47.2451 0.920331L50.6759 20.8018L51.173 20.7161L47.7422 0.834561ZM45.3463 1.30083L44.8534 1.40773L49.1293 21.1248L49.6222 21.0179L45.3463 1.30083ZM42.9573 1.87292L42.4694 2.00088L47.588 21.5161L48.0759 21.3882L42.9573 1.87292ZM40.5993 2.54569L40.1174 2.69444L46.0673 21.9725L46.5493 21.8237L40.5993 2.54569ZM38.2675 3.32056L37.7924 3.48984L44.5639 22.4949L45.039 22.3256L38.2675 3.32056ZM35.9694 4.19539L35.502 4.3849L43.0824 23.082L43.5498 22.8925L35.9694 4.19539ZM33.7428 5.15338L33.2838 5.36246L41.6472 23.7227L42.1062 23.5136L33.7428 5.15338ZM31.5324 6.21787L31.0827 6.44636L40.2226 24.4327L40.6722 24.2042L31.5324 6.21787ZM29.3723 7.37409L28.9328 7.62154L38.8307 25.2021L39.2702 24.9546L29.3723 7.37409ZM27.2617 8.62232L26.8332 8.88827L37.4711 26.0311L37.8997 25.7652L27.2617 8.62232ZM25.2072 9.95863L24.7904 10.2426L36.1483 26.9172L36.5651 26.6333L25.2072 9.95863ZM23.2081 11.3836L22.8038 11.6851L34.8618 27.8606L35.2662 27.5591L23.2081 11.3836ZM21.2741 12.8904L20.8829 13.2088L33.6182 28.8567L34.0094 28.5383L21.2741 12.8904ZM19.4012 14.4822L19.024 14.817L32.415 29.9076L32.7923 29.5728L19.4012 14.4822ZM17.5988 16.1517L17.2361 16.5023L31.2584 31.0082L31.621 30.6577L17.5988 16.1517ZM15.8808 17.8843L15.5334 18.2499L30.1573 32.149L30.5048 31.7834L15.8808 17.8843ZM14.2595 19.6631L13.9276 20.0429L29.1196 33.3188L29.4515 32.939L14.2595 19.6631ZM12.6889 21.5395L12.3734 21.933L28.1158 34.5514L28.4313 34.1578L12.6889 21.5395ZM11.1976 23.4834L10.8992 23.89L27.1642 35.827L27.4627 35.4204L11.1976 23.4834ZM9.7904 25.4889L9.50955 25.9078L26.2678 37.1419L26.5487 36.723L9.7904 25.4889ZM8.46933 27.5533L8.20656 27.9838L25.4277 38.4946L25.6905 38.064L8.46933 27.5533ZM7.23628 29.6737L6.99207 30.1151L24.6449 39.8834L24.8891 39.4421L7.23628 29.6737ZM6.09703 31.8398L5.87175 32.291L23.923 41.3021L24.1482 40.8508L6.09703 31.8398ZM5.04888 34.0559L4.84293 34.5163L23.2599 42.754L23.4659 42.2936L5.04888 34.0559ZM4.0968 36.311L3.91048 36.7797L22.6588 44.2326L22.8451 43.7639L4.0968 36.311ZM3.24086 38.6037L3.07442 39.0798L22.1197 45.7372L22.2862 45.2611L3.24086 38.6037ZM2.48366 40.9255L2.3374 41.4082L21.6459 47.2585L21.7922 46.7758L2.48366 40.9255ZM1.824 43.2807L1.69826 43.7691L21.2366 48.7988L21.3623 48.3104L1.824 43.2807ZM1.26442 45.662L1.15945 46.1553L20.8931 50.354L20.998 49.8607L1.26442 45.662ZM0.805174 48.0704L0.721237 48.5678L20.6153 51.9252L20.6992 51.4279L0.805174 48.0704ZM0.45042 50.4815L0.387543 50.9819L20.4055 53.497L20.4684 52.9965L0.45042 50.4815ZM0.19672 52.9173L0.155118 53.4199L20.2617 55.084L20.3033 54.5814L0.19672 52.9173ZM0.0463267 55.366L0.0261036 55.87L20.1852 56.6789L20.2055 56.175L0.0463267 55.366ZM0 57.8159L0.00115274 58.3203L20.1765 58.2742L20.1753 57.7698L0 57.8159ZM0.057599 60.2677L0.0801301 60.7716L20.2353 59.8704L20.2128 59.3665L0.057599 60.2677ZM0.216385 62.6844L0.259973 63.1869L20.3598 61.4434L20.3163 60.9409L0.216385 62.6844ZM0.478817 65.1135L0.543558 65.6137L20.552 63.024L20.4873 62.5238L0.478817 65.1135ZM0.844335 67.5346L0.93015 68.0316L20.8113 64.599L20.7255 64.102L0.844335 67.5346ZM1.31224 69.9401L1.41899 70.433L21.1373 66.1631L21.0306 65.6702L1.31224 69.9401ZM1.88007 72.3186L2.00752 72.8066L21.5282 67.7088L21.4007 67.2208L1.88007 72.3186ZM2.5502 74.6791L2.69819 75.1612L21.9856 69.2416L21.8376 68.7594L2.5502 74.6791ZM3.3186 77.006L3.48686 77.4815L22.5066 70.7514L22.3383 70.2759L3.3186 77.006ZM4.18555 79.3003L4.3738 79.7683L23.0913 72.2384L22.9031 71.7704L4.18555 79.3003ZM5.15024 81.5586L5.35819 82.0182L23.7392 73.7004L23.5312 73.2409L5.15024 81.5586ZM6.1947 83.7436L6.42172 84.194L24.4379 75.1132L24.2109 74.6628L6.1947 83.7436ZM7.3282 85.8799L7.57389 86.3204L25.1938 76.4928L24.9481 76.0523L7.3282 85.8799ZM8.56684 87.9938L8.83103 88.4235L26.0175 77.8561L25.7533 77.4264L8.56684 87.9938ZM9.89356 90.0522L10.1758 90.4702L26.8975 79.1818L26.6153 78.7638L9.89356 90.0522ZM11.3065 92.0521L11.6063 92.4578L27.8327 80.4683L27.533 80.0627L11.3065 92.0521ZM12.8066 93.9943L13.1234 94.3868L28.8238 81.7163L28.5071 81.3238L12.8066 93.9943ZM14.3866 95.8689L14.7198 96.2476L29.8663 82.9199L29.5331 82.5412L14.3866 95.8689ZM16.0441 97.6737L16.3931 98.0379L30.9589 84.0779L30.6099 83.7137L16.0441 97.6737ZM17.7768 99.4063L18.1409 99.7553L32.1006 85.1891L31.7364 84.8401L17.7768 99.4063ZM19.582 101.064L19.9606 101.398L33.2902 86.2527L32.9116 85.9194L19.582 101.064Z" fill="#75E76B"/>
</svg>
