<svg width="16" height="4" viewBox="0 0 16 4" fill="none" xmlns="http://www.w3.org/2000/svg">
<path d="M1.86666 3.73333C0.835732 3.73333 -3.57628e-06 2.8976 -3.57628e-06 1.86667C-3.57628e-06 0.835735 0.835732 0 1.86666 0C2.89759 0 3.73333 0.835735 3.73333 1.86667C3.73333 2.8976 2.89759 3.73333 1.86666 3.73333Z" fill="#CED0DE"/>
<path d="M8 3.73333C6.96907 3.73333 6.13334 2.8976 6.13334 1.86667C6.13334 0.835735 6.96907 0 8 0C9.03093 0 9.86667 0.835735 9.86667 1.86667C9.86667 2.8976 9.03093 3.73333 8 3.73333Z" fill="#CED0DE"/>
<path d="M14.1333 3.73333C13.1024 3.73333 12.2667 2.8976 12.2667 1.86667C12.2667 0.835735 13.1024 0 14.1333 0C15.1643 0 16 0.835735 16 1.86667C16 2.8976 15.1643 3.73333 14.1333 3.73333Z" fill="#CED0DE"/>
</svg>
