<svg width="72" height="73" viewBox="0 0 72 73" fill="none" xmlns="http://www.w3.org/2000/svg">
<rect y="0.931511" width="72" height="72" rx="12" fill="#2878A3"/>
<path d="M32.2748 38.8364C35.3936 38.8364 37.9219 36.3082 37.9219 33.1894C37.9219 30.0706 35.3936 27.5423 32.2748 27.5423C29.1561 27.5423 26.6278 30.0706 26.6278 33.1894C26.6278 36.3082 29.1561 38.8364 32.2748 38.8364Z" fill="white"/>
<path d="M36.0396 40.6746H28.5102C24.3518 40.6746 20.9808 44.0456 20.9808 48.204V51.0275C20.9808 51.5473 21.4021 51.9687 21.922 51.9687H42.6278C43.1476 51.9687 43.569 51.5473 43.569 51.0275V48.204C43.569 44.0456 40.198 40.6746 36.0396 40.6746ZM34.5437 26.0104C37.5233 26.9544 39.6941 29.692 39.7966 32.9474C39.8007 33.079 39.9098 33.1876 40.0413 33.1804C43.053 33.0156 45.4451 30.4706 45.3704 27.4016C45.3013 24.5614 43.005 22.1296 40.1724 21.9116C37.5057 21.7063 35.1885 23.3547 34.3859 25.7121C34.3435 25.8368 34.4182 25.9706 34.5437 26.0104Z" fill="white"/>
<path d="M43.4898 35.0238H39.7501C39.6459 35.0238 39.5574 35.0939 39.5299 35.1944C39.1775 36.482 38.4901 37.6334 37.5628 38.5418C37.4235 38.6781 37.4921 38.9008 37.684 38.9346C41.4208 39.5931 44.3936 42.4625 45.2203 46.1368C45.2441 46.2425 45.3353 46.3179 45.4436 46.3179H50.078C50.5957 46.3179 51.0192 45.9038 51.0192 45.3767V42.5532C51.0192 38.4026 47.6498 35.0238 43.4898 35.0238Z" fill="white"/>
</svg>
