<svg width="69" height="69" viewBox="0 0 69 69" fill="none" xmlns="http://www.w3.org/2000/svg">
<mask id="mask0_2402_1775" style="mask-type:luminance" maskUnits="userSpaceOnUse" x="0" y="0" width="69" height="69">
<path d="M61.5833 2H7.41667C4.42512 2 2 4.42512 2 7.41667V61.5833C2 64.5749 4.42512 67 7.41667 67H61.5833C64.5749 67 67 64.5749 67 61.5833V7.41667C67 4.42512 64.5749 2 61.5833 2Z" fill="white" stroke="white" stroke-width="4" stroke-linejoin="round"/>
<path fill-rule="evenodd" clip-rule="evenodd" d="M34.5002 31.7918C35.6974 31.7918 36.8455 31.3162 37.692 30.4697C38.5385 29.6232 39.0141 28.475 39.0141 27.2779C39.0141 26.0807 38.5385 24.9326 37.692 24.0861C36.8455 23.2396 35.6974 22.764 34.5002 22.764C33.3031 22.764 32.1549 23.2396 31.3084 24.0861C30.4619 24.9326 29.9863 26.0807 29.9863 27.2779C29.9863 28.475 30.4619 29.6232 31.3084 30.4697C32.1549 31.3162 33.3031 31.7918 34.5002 31.7918ZM34.5002 46.2362C35.6974 46.2362 36.8455 45.7606 37.692 44.9141C38.5385 44.0676 39.0141 42.9195 39.0141 41.7223C39.0141 40.5252 38.5385 39.377 37.692 38.5305C36.8455 37.684 35.6974 37.2084 34.5002 37.2084C33.3031 37.2084 32.1549 37.684 31.3084 38.5305C30.4619 39.377 29.9863 40.5252 29.9863 41.7223C29.9863 42.9195 30.4619 44.0676 31.3084 44.9141C32.1549 45.7606 33.3031 46.2362 34.5002 46.2362Z" fill="black"/>
<path d="M19.1543 21.861V47.1388M49.8487 21.861V47.1388" stroke="black" stroke-width="4" stroke-linecap="round" stroke-linejoin="round"/>
</mask>
<g mask="url(#mask0_2402_1775)">
<path d="M-8.83398 3.16651C-8.83398 -3.46091 -3.4614 -8.83348 3.16602 -8.83348H65.8327C72.4601 -8.83348 77.8327 -3.4609 77.8327 3.16652V65.8332C77.8327 72.4606 72.4601 77.8332 65.8327 77.8332H3.166C-3.46141 77.8332 -8.83398 72.4606 -8.83398 65.8332V3.16651Z" fill="#2878A3"/>
</g>
</svg>
